<mxfile host="app.diagrams.net" modified="2022-04-18T05:49:23.099Z" agent="5.0 (Windows NT 10.0; Win64; x64) AppleWebKit/537.36 (KHTML, like Gecko) Chrome/100.0.4896.75 Safari/537.36 Edg/100.0.1185.36" etag="FH9Qu5D8fLZ-CcgS3RV9" version="17.4.4" type="github">
  <diagram name="Page-1" id="e3a06f82-3646-2815-327d-82caf3d4e204">
    <mxGraphModel dx="1280" dy="725" grid="1" gridSize="10" guides="1" tooltips="1" connect="1" arrows="1" fold="1" page="1" pageScale="1.5" pageWidth="1169" pageHeight="826" background="none" math="0" shadow="0">
      <root>
        <mxCell id="0" style=";html=1;" />
        <mxCell id="1" style=";html=1;" parent="0" />
        <mxCell id="6a7d8f32e03d9370-58" value="Bank" style="whiteSpace=wrap;html=1;fillColor=#dae8fc;fontSize=14;strokeColor=none;verticalAlign=top;" parent="1" vertex="1">
          <mxGeometry x="640" y="421" width="880" height="719" as="geometry" />
        </mxCell>
        <mxCell id="oL2bmwSzXXmvYR2maAVO-16" style="edgeStyle=orthogonalEdgeStyle;rounded=0;orthogonalLoop=1;jettySize=auto;html=1;" edge="1" parent="1" source="6a7d8f32e03d9370-30" target="oL2bmwSzXXmvYR2maAVO-1">
          <mxGeometry relative="1" as="geometry" />
        </mxCell>
        <mxCell id="6a7d8f32e03d9370-30" value="account-service" style="verticalLabelPosition=bottom;aspect=fixed;html=1;verticalAlign=top;strokeColor=none;shape=mxgraph.citrix.web_service;fillColor=#66B2FF;gradientColor=#0066CC;fontSize=14;" parent="1" vertex="1">
          <mxGeometry x="1410" y="620" width="63" height="60" as="geometry" />
        </mxCell>
        <mxCell id="6a7d8f32e03d9370-62" value="Citrix Network Architecture" style="text;strokeColor=none;fillColor=none;html=1;fontSize=24;fontStyle=1;verticalAlign=middle;align=center;" parent="1" vertex="1">
          <mxGeometry x="499" y="30" width="861" height="40" as="geometry" />
        </mxCell>
        <mxCell id="oL2bmwSzXXmvYR2maAVO-19" style="edgeStyle=orthogonalEdgeStyle;rounded=0;orthogonalLoop=1;jettySize=auto;html=1;entryX=0.702;entryY=1.028;entryDx=0;entryDy=0;entryPerimeter=0;" edge="1" parent="1" source="oL2bmwSzXXmvYR2maAVO-2" target="oL2bmwSzXXmvYR2maAVO-1">
          <mxGeometry relative="1" as="geometry" />
        </mxCell>
        <mxCell id="oL2bmwSzXXmvYR2maAVO-2" value="configuration-service" style="verticalLabelPosition=bottom;aspect=fixed;html=1;verticalAlign=top;strokeColor=none;shape=mxgraph.citrix.web_service;fillColor=#66B2FF;gradientColor=#0066CC;fontSize=14;" vertex="1" parent="1">
          <mxGeometry x="1380" y="800" width="63" height="60" as="geometry" />
        </mxCell>
        <mxCell id="oL2bmwSzXXmvYR2maAVO-20" style="edgeStyle=orthogonalEdgeStyle;rounded=0;orthogonalLoop=1;jettySize=auto;html=1;entryX=0.972;entryY=0.624;entryDx=0;entryDy=0;entryPerimeter=0;" edge="1" parent="1" source="oL2bmwSzXXmvYR2maAVO-3" target="oL2bmwSzXXmvYR2maAVO-1">
          <mxGeometry relative="1" as="geometry" />
        </mxCell>
        <mxCell id="oL2bmwSzXXmvYR2maAVO-3" value="credit-service" style="verticalLabelPosition=bottom;aspect=fixed;html=1;verticalAlign=top;strokeColor=none;shape=mxgraph.citrix.web_service;fillColor=#66B2FF;gradientColor=#0066CC;fontSize=14;" vertex="1" parent="1">
          <mxGeometry x="1210" y="1000" width="63" height="60" as="geometry" />
        </mxCell>
        <mxCell id="oL2bmwSzXXmvYR2maAVO-17" style="edgeStyle=orthogonalEdgeStyle;rounded=0;orthogonalLoop=1;jettySize=auto;html=1;entryX=0.202;entryY=0.356;entryDx=0;entryDy=0;entryPerimeter=0;" edge="1" parent="1" source="oL2bmwSzXXmvYR2maAVO-4" target="oL2bmwSzXXmvYR2maAVO-1">
          <mxGeometry relative="1" as="geometry" />
        </mxCell>
        <mxCell id="oL2bmwSzXXmvYR2maAVO-4" value="customer-service" style="verticalLabelPosition=bottom;aspect=fixed;html=1;verticalAlign=top;strokeColor=none;shape=mxgraph.citrix.web_service;fillColor=#66B2FF;gradientColor=#0066CC;fontSize=14;" vertex="1" parent="1">
          <mxGeometry x="930" y="470" width="63" height="60" as="geometry" />
        </mxCell>
        <mxCell id="oL2bmwSzXXmvYR2maAVO-12" style="edgeStyle=orthogonalEdgeStyle;rounded=0;orthogonalLoop=1;jettySize=auto;html=1;entryX=0.221;entryY=0.78;entryDx=0;entryDy=0;entryPerimeter=0;" edge="1" parent="1" source="oL2bmwSzXXmvYR2maAVO-5" target="oL2bmwSzXXmvYR2maAVO-1">
          <mxGeometry relative="1" as="geometry" />
        </mxCell>
        <mxCell id="oL2bmwSzXXmvYR2maAVO-5" value="movement-account-service" style="verticalLabelPosition=bottom;aspect=fixed;html=1;verticalAlign=top;strokeColor=none;shape=mxgraph.citrix.web_service;fillColor=#66B2FF;gradientColor=#0066CC;fontSize=14;" vertex="1" parent="1">
          <mxGeometry x="710" y="800" width="63" height="60" as="geometry" />
        </mxCell>
        <mxCell id="oL2bmwSzXXmvYR2maAVO-21" style="edgeStyle=orthogonalEdgeStyle;rounded=0;orthogonalLoop=1;jettySize=auto;html=1;entryX=0.491;entryY=0.503;entryDx=0;entryDy=0;entryPerimeter=0;" edge="1" parent="1" source="oL2bmwSzXXmvYR2maAVO-6" target="oL2bmwSzXXmvYR2maAVO-1">
          <mxGeometry relative="1" as="geometry" />
        </mxCell>
        <mxCell id="oL2bmwSzXXmvYR2maAVO-6" value="product-service" style="verticalLabelPosition=bottom;aspect=fixed;html=1;verticalAlign=top;strokeColor=none;shape=mxgraph.citrix.web_service;fillColor=#66B2FF;gradientColor=#0066CC;fontSize=14;" vertex="1" parent="1">
          <mxGeometry x="930" y="1010" width="63" height="60" as="geometry" />
        </mxCell>
        <mxCell id="oL2bmwSzXXmvYR2maAVO-13" style="edgeStyle=orthogonalEdgeStyle;rounded=0;orthogonalLoop=1;jettySize=auto;html=1;entryX=0.01;entryY=0.659;entryDx=0;entryDy=0;entryPerimeter=0;" edge="1" parent="1" source="oL2bmwSzXXmvYR2maAVO-7" target="oL2bmwSzXXmvYR2maAVO-1">
          <mxGeometry relative="1" as="geometry" />
        </mxCell>
        <mxCell id="oL2bmwSzXXmvYR2maAVO-7" value="movementCredit-service" style="verticalLabelPosition=bottom;aspect=fixed;html=1;verticalAlign=top;strokeColor=none;shape=mxgraph.citrix.web_service;fillColor=#66B2FF;gradientColor=#0066CC;fontSize=14;" vertex="1" parent="1">
          <mxGeometry x="710" y="620" width="63" height="60" as="geometry" />
        </mxCell>
        <mxCell id="oL2bmwSzXXmvYR2maAVO-15" style="edgeStyle=orthogonalEdgeStyle;rounded=0;orthogonalLoop=1;jettySize=auto;html=1;entryX=0.856;entryY=0.396;entryDx=0;entryDy=0;entryPerimeter=0;" edge="1" parent="1" source="oL2bmwSzXXmvYR2maAVO-11" target="oL2bmwSzXXmvYR2maAVO-1">
          <mxGeometry relative="1" as="geometry" />
        </mxCell>
        <mxCell id="oL2bmwSzXXmvYR2maAVO-11" value="SignCustAccount-service" style="verticalLabelPosition=bottom;aspect=fixed;html=1;verticalAlign=top;strokeColor=none;shape=mxgraph.citrix.web_service;fillColor=#66B2FF;gradientColor=#0066CC;fontSize=14;" vertex="1" parent="1">
          <mxGeometry x="1210" y="490" width="63" height="60" as="geometry" />
        </mxCell>
        <mxCell id="oL2bmwSzXXmvYR2maAVO-1" value="config-service" style="verticalLabelPosition=bottom;aspect=fixed;html=1;verticalAlign=top;strokeColor=none;shape=mxgraph.citrix.web_service;fillColor=#66B2FF;gradientColor=#0066CC;fontSize=14;" vertex="1" parent="1">
          <mxGeometry x="1048.5" y="710" width="63" height="60" as="geometry" />
        </mxCell>
      </root>
    </mxGraphModel>
  </diagram>
</mxfile>
